<mxfile host="app.diagrams.net" modified="2020-10-29T00:00:55.121Z" agent="5.0 (Windows NT 10.0; Win64; x64) AppleWebKit/537.36 (KHTML, like Gecko) Chrome/86.0.4240.111 Safari/537.36" etag="wWKOrYwX9XI-3YMBtzd_" version="13.8.6" type="github">
  <diagram id="omvWzpszIbfOMrYEtXJd" name="Page-1">
    <mxGraphModel dx="1108" dy="1535" grid="1" gridSize="10" guides="1" tooltips="1" connect="1" arrows="1" fold="1" page="1" pageScale="1" pageWidth="1100" pageHeight="850" math="0" shadow="0">
      <root>
        <mxCell id="0" />
        <mxCell id="1" parent="0" />
        <mxCell id="L0Wl1w1Pw-v7TW8PgjGB-2" value="Window Title" style="strokeWidth=1;shadow=0;dashed=0;align=center;html=1;shape=mxgraph.mockup.containers.window;align=left;verticalAlign=top;spacingLeft=8;strokeColor2=#008cff;strokeColor3=#c4c4c4;fontColor=#666666;mainText=;fontSize=17;labelBackgroundColor=none;" vertex="1" parent="1">
          <mxGeometry x="280" y="-615" width="550" height="380" as="geometry" />
        </mxCell>
        <mxCell id="L0Wl1w1Pw-v7TW8PgjGB-3" value="" style="image;html=1;image=img/lib/clip_art/people/Suit_Man_Blue_128x128.png" vertex="1" parent="1">
          <mxGeometry x="510" y="-560" width="90" height="90" as="geometry" />
        </mxCell>
        <mxCell id="L0Wl1w1Pw-v7TW8PgjGB-4" value="" style="image;html=1;image=img/lib/clip_art/general/Gear_128x128.png" vertex="1" parent="1">
          <mxGeometry x="702" y="-360" width="88.1" height="80" as="geometry" />
        </mxCell>
        <mxCell id="L0Wl1w1Pw-v7TW8PgjGB-5" value="" style="image;html=1;image=img/lib/clip_art/computers/Software_128x128.png" vertex="1" parent="1">
          <mxGeometry x="510" y="-370" width="90" height="80" as="geometry" />
        </mxCell>
        <mxCell id="L0Wl1w1Pw-v7TW8PgjGB-6" value="" style="aspect=fixed;perimeter=ellipsePerimeter;html=1;align=center;shadow=0;dashed=0;spacingTop=3;image;image=img/lib/active_directory/database.svg;" vertex="1" parent="1">
          <mxGeometry x="690" y="-560" width="108.1" height="80" as="geometry" />
        </mxCell>
        <mxCell id="L0Wl1w1Pw-v7TW8PgjGB-8" value="" style="aspect=fixed;perimeter=ellipsePerimeter;html=1;align=center;shadow=0;dashed=0;spacingTop=3;image;image=img/lib/active_directory/user_accounts.svg;" vertex="1" parent="1">
          <mxGeometry x="320" y="-560" width="84.31" height="81.78" as="geometry" />
        </mxCell>
        <mxCell id="L0Wl1w1Pw-v7TW8PgjGB-9" value="" style="aspect=fixed;perimeter=ellipsePerimeter;html=1;align=center;shadow=0;dashed=0;spacingTop=3;image;image=img/lib/active_directory/workstation_client.svg;" vertex="1" parent="1">
          <mxGeometry x="324.97" y="-377.5" width="74.38" height="87.5" as="geometry" />
        </mxCell>
        <mxCell id="L0Wl1w1Pw-v7TW8PgjGB-12" value="" style="strokeWidth=1;shadow=0;dashed=0;align=center;html=1;shape=mxgraph.mockup.containers.marginRect2;rectMarginLeft=67;strokeColor=#36393d;gradientColor=#ffffff;fillColor=#F2FFFF;" vertex="1" parent="1">
          <mxGeometry x="215" y="100" width="680" height="458" as="geometry" />
        </mxCell>
        <mxCell id="L0Wl1w1Pw-v7TW8PgjGB-13" value="Tab 1" style="strokeColor=#006EAF;fillColor=#1ba1e2;strokeWidth=1;shadow=0;dashed=0;align=center;html=1;shape=mxgraph.mockup.containers.rrect;rSize=0;fontSize=17;fontColor=#ffffff;" vertex="1" parent="L0Wl1w1Pw-v7TW8PgjGB-12">
          <mxGeometry width="60" height="25" relative="1" as="geometry">
            <mxPoint y="10" as="offset" />
          </mxGeometry>
        </mxCell>
        <mxCell id="L0Wl1w1Pw-v7TW8PgjGB-14" value="Tab 2" style="strokeWidth=1;shadow=0;dashed=0;align=center;html=1;shape=mxgraph.mockup.containers.rrect;rSize=0;fontSize=17;" vertex="1" parent="L0Wl1w1Pw-v7TW8PgjGB-12">
          <mxGeometry width="60" height="25" relative="1" as="geometry">
            <mxPoint y="40" as="offset" />
          </mxGeometry>
        </mxCell>
        <mxCell id="L0Wl1w1Pw-v7TW8PgjGB-15" value="Tab 3" style="strokeWidth=1;shadow=0;dashed=0;align=center;html=1;shape=mxgraph.mockup.containers.rrect;rSize=0;fontSize=17;" vertex="1" parent="L0Wl1w1Pw-v7TW8PgjGB-12">
          <mxGeometry width="60" height="25" relative="1" as="geometry">
            <mxPoint y="70" as="offset" />
          </mxGeometry>
        </mxCell>
        <mxCell id="L0Wl1w1Pw-v7TW8PgjGB-16" value="" style="strokeWidth=1;shadow=0;dashed=0;align=center;html=1;shape=mxgraph.mockup.containers.leftButton;rSize=5;strokeColor=#008cff;fillColor=#008cff;resizeHeight=1;movable=0;deletable=0;" vertex="1" parent="L0Wl1w1Pw-v7TW8PgjGB-12">
          <mxGeometry width="7" height="410" relative="1" as="geometry">
            <mxPoint x="60" as="offset" />
          </mxGeometry>
        </mxCell>
        <mxCell id="L0Wl1w1Pw-v7TW8PgjGB-17" value="" style="aspect=fixed;perimeter=ellipsePerimeter;html=1;align=center;shadow=0;dashed=0;spacingTop=3;image;image=img/lib/active_directory/user_accounts.svg;" vertex="1" parent="L0Wl1w1Pw-v7TW8PgjGB-12">
          <mxGeometry x="110.00000000000003" y="20" width="84.31" height="81.78" as="geometry" />
        </mxCell>
        <mxCell id="L0Wl1w1Pw-v7TW8PgjGB-30" value="&lt;b&gt;ID no.&lt;/b&gt;" style="strokeWidth=1;shadow=0;dashed=0;align=center;html=1;shape=mxgraph.mockup.forms.anchor;align=right;spacingRight=2;fontColor=#666666;" vertex="1" parent="L0Wl1w1Pw-v7TW8PgjGB-12">
          <mxGeometry x="180" y="120" width="50" height="18" as="geometry" />
        </mxCell>
        <mxCell id="L0Wl1w1Pw-v7TW8PgjGB-31" value="" style="strokeWidth=1;shadow=0;dashed=0;align=center;html=1;shape=mxgraph.mockup.forms.rrect;fillColor=#ffffff;rSize=0;fontColor=#666666;align=left;spacingLeft=3;strokeColor=#999999;" vertex="1" parent="L0Wl1w1Pw-v7TW8PgjGB-12">
          <mxGeometry x="250" y="120" width="350" height="18" as="geometry" />
        </mxCell>
        <mxCell id="L0Wl1w1Pw-v7TW8PgjGB-32" value="&lt;b&gt;Name&lt;/b&gt;" style="strokeWidth=1;shadow=0;dashed=0;align=center;html=1;shape=mxgraph.mockup.forms.anchor;align=right;spacingRight=2;fontColor=#666666;" vertex="1" parent="L0Wl1w1Pw-v7TW8PgjGB-12">
          <mxGeometry x="180" y="160" width="50" height="18" as="geometry" />
        </mxCell>
        <mxCell id="L0Wl1w1Pw-v7TW8PgjGB-33" value="" style="strokeWidth=1;shadow=0;dashed=0;align=center;html=1;shape=mxgraph.mockup.forms.rrect;fillColor=#ffffff;rSize=0;fontColor=#666666;align=left;spacingLeft=3;strokeColor=#999999;" vertex="1" parent="L0Wl1w1Pw-v7TW8PgjGB-12">
          <mxGeometry x="250" y="160" width="350" height="18" as="geometry" />
        </mxCell>
        <mxCell id="L0Wl1w1Pw-v7TW8PgjGB-34" value="&lt;b&gt;Password&lt;/b&gt;" style="strokeWidth=1;shadow=0;dashed=0;align=center;html=1;shape=mxgraph.mockup.forms.anchor;align=right;spacingRight=2;fontColor=#666666;" vertex="1" parent="L0Wl1w1Pw-v7TW8PgjGB-12">
          <mxGeometry x="180" y="196" width="50" height="18" as="geometry" />
        </mxCell>
        <mxCell id="L0Wl1w1Pw-v7TW8PgjGB-35" value="" style="strokeWidth=1;shadow=0;dashed=0;align=center;html=1;shape=mxgraph.mockup.forms.rrect;fillColor=#ffffff;rSize=0;fontColor=#666666;align=left;spacingLeft=3;strokeColor=#999999;" vertex="1" parent="L0Wl1w1Pw-v7TW8PgjGB-12">
          <mxGeometry x="250" y="196" width="350" height="18" as="geometry" />
        </mxCell>
        <mxCell id="L0Wl1w1Pw-v7TW8PgjGB-36" value="&lt;b&gt;Card No.&lt;/b&gt;" style="strokeWidth=1;shadow=0;dashed=0;align=center;html=1;shape=mxgraph.mockup.forms.anchor;align=right;spacingRight=2;fontColor=#666666;" vertex="1" parent="L0Wl1w1Pw-v7TW8PgjGB-12">
          <mxGeometry x="180" y="230" width="50" height="18" as="geometry" />
        </mxCell>
        <mxCell id="L0Wl1w1Pw-v7TW8PgjGB-37" value="" style="strokeWidth=1;shadow=0;dashed=0;align=center;html=1;shape=mxgraph.mockup.forms.rrect;fillColor=#b1ddf0;rSize=0;align=left;spacingLeft=3;strokeColor=#10739e;" vertex="1" parent="L0Wl1w1Pw-v7TW8PgjGB-12">
          <mxGeometry x="250" y="230" width="350" height="18" as="geometry" />
        </mxCell>
        <mxCell id="L0Wl1w1Pw-v7TW8PgjGB-44" value="Finish" style="html=1;shadow=0;dashed=0;shape=mxgraph.bootstrap.rrect;rSize=5;strokeColor=none;strokeWidth=1;fillColor=#1CA5B8;fontColor=#FFFFFF;whiteSpace=wrap;align=center;verticalAlign=middle;spacingLeft=0;fontStyle=0;fontSize=16;spacing=5;" vertex="1" parent="L0Wl1w1Pw-v7TW8PgjGB-12">
          <mxGeometry x="520" y="350" width="80" height="40" as="geometry" />
        </mxCell>
        <mxCell id="L0Wl1w1Pw-v7TW8PgjGB-49" value="" style="shape=image;html=1;verticalAlign=top;verticalLabelPosition=bottom;labelBackgroundColor=#ffffff;imageAspect=0;aspect=fixed;image=https://cdn4.iconfinder.com/data/icons/internet-security-flat-2/32/Internet_Security_Finger_print_identity_crime_fingerprint-128.png;fillColor=#F2FFFF;gradientColor=#ffffff;" vertex="1" parent="L0Wl1w1Pw-v7TW8PgjGB-12">
          <mxGeometry x="125" y="325" width="88" height="88" as="geometry" />
        </mxCell>
        <mxCell id="L0Wl1w1Pw-v7TW8PgjGB-51" value="" style="html=1;verticalLabelPosition=bottom;align=center;labelBackgroundColor=#ffffff;verticalAlign=top;strokeWidth=2;strokeColor=#0080F0;shadow=0;dashed=0;shape=mxgraph.ios7.icons.camera;fillColor=#F2FFFF;gradientColor=#ffffff;" vertex="1" parent="L0Wl1w1Pw-v7TW8PgjGB-12">
          <mxGeometry x="230" y="340" width="80" height="65" as="geometry" />
        </mxCell>
      </root>
    </mxGraphModel>
  </diagram>
</mxfile>
